<mxfile host="65bd71144e">
    <diagram id="xJAKkDWGs4NiO-X_Mwzd" name="Page-1">
        <mxGraphModel dx="1320" dy="760" grid="1" gridSize="10" guides="1" tooltips="1" connect="1" arrows="1" fold="1" page="1" pageScale="1" pageWidth="1600" pageHeight="900" background="#ffffff" math="0" shadow="0">
            <root>
                <mxCell id="0"/>
                <mxCell id="1" parent="0"/>
                <mxCell id="2" value="Policy" style="text;html=1;align=center;verticalAlign=middle;resizable=0;points=[];autosize=1;strokeColor=none;fillColor=none;fontSize=18;" vertex="1" parent="1">
                    <mxGeometry x="20" y="80" width="60" height="30" as="geometry"/>
                </mxCell>
                <mxCell id="3" value="gURL Command Program Architecture" style="text;html=1;align=center;verticalAlign=middle;resizable=0;points=[];autosize=1;strokeColor=none;fillColor=none;fontSize=24;" vertex="1" parent="1">
                    <mxGeometry x="20" y="20" width="430" height="30" as="geometry"/>
                </mxCell>
                <mxCell id="4" value="- Layered Architecture&lt;br&gt;- Proxy pattern for client object&lt;br&gt;- Use json as a datastore ( document database style )" style="text;html=1;align=left;verticalAlign=middle;resizable=0;points=[];autosize=1;strokeColor=none;fillColor=none;fontSize=16;" vertex="1" parent="1">
                    <mxGeometry x="20" y="110" width="400" height="60" as="geometry"/>
                </mxCell>
                <mxCell id="17" style="edgeStyle=none;html=1;exitX=1;exitY=0.5;exitDx=0;exitDy=0;entryX=0;entryY=0.5;entryDx=0;entryDy=0;fontSize=12;" edge="1" parent="1" source="5" target="6">
                    <mxGeometry relative="1" as="geometry"/>
                </mxCell>
                <mxCell id="5" value="CommandParser" style="whiteSpace=wrap;html=1;fontSize=16;" vertex="1" parent="1">
                    <mxGeometry x="390" y="400" width="170" height="150" as="geometry"/>
                </mxCell>
                <mxCell id="6" value="GurlClient" style="whiteSpace=wrap;html=1;fontSize=16;verticalAlign=top;" vertex="1" parent="1">
                    <mxGeometry x="610" y="365" width="430" height="275" as="geometry"/>
                </mxCell>
                <mxCell id="18" style="edgeStyle=none;html=1;exitX=0.25;exitY=0;exitDx=0;exitDy=0;entryX=0;entryY=0.25;entryDx=0;entryDy=0;fontSize=12;" edge="1" parent="1" source="7" target="9">
                    <mxGeometry relative="1" as="geometry">
                        <Array as="points">
                            <mxPoint x="670" y="265"/>
                        </Array>
                    </mxGeometry>
                </mxCell>
                <mxCell id="7" value="HttpClient" style="whiteSpace=wrap;html=1;fontSize=16;verticalAlign=top;" vertex="1" parent="1">
                    <mxGeometry x="620" y="435" width="210" height="195" as="geometry"/>
                </mxCell>
                <mxCell id="8" value="MetaDataStore" style="whiteSpace=wrap;html=1;fontSize=16;verticalAlign=top;" vertex="1" parent="1">
                    <mxGeometry x="840" y="435" width="190" height="195" as="geometry"/>
                </mxCell>
                <mxCell id="19" style="edgeStyle=none;html=1;exitX=0;exitY=0.75;exitDx=0;exitDy=0;entryX=0.333;entryY=-0.005;entryDx=0;entryDy=0;entryPerimeter=0;fontSize=12;" edge="1" parent="1" source="9" target="7">
                    <mxGeometry relative="1" as="geometry">
                        <Array as="points">
                            <mxPoint x="690" y="295"/>
                        </Array>
                    </mxGeometry>
                </mxCell>
                <mxCell id="9" value="Server" style="rounded=1;whiteSpace=wrap;html=1;fontSize=16;" vertex="1" parent="1">
                    <mxGeometry x="1050" y="250" width="120" height="60" as="geometry"/>
                </mxCell>
                <mxCell id="11" style="edgeStyle=none;html=1;exitX=0.9;exitY=0.5;exitDx=0;exitDy=0;exitPerimeter=0;entryX=0;entryY=0.5;entryDx=0;entryDy=0;fontSize=14;" edge="1" parent="1" source="10" target="5">
                    <mxGeometry relative="1" as="geometry"/>
                </mxCell>
                <mxCell id="10" value="User" style="shape=actor;whiteSpace=wrap;html=1;fontSize=14;verticalAlign=bottom;" vertex="1" parent="1">
                    <mxGeometry x="130" y="445" width="40" height="60" as="geometry"/>
                </mxCell>
                <mxCell id="13" style="edgeStyle=none;html=1;exitX=0.5;exitY=0;exitDx=0;exitDy=0;fontSize=14;" edge="1" parent="1" source="12">
                    <mxGeometry relative="1" as="geometry">
                        <mxPoint x="280" y="480" as="targetPoint"/>
                    </mxGeometry>
                </mxCell>
                <mxCell id="12" value="Arguments" style="whiteSpace=wrap;html=1;fontSize=14;" vertex="1" parent="1">
                    <mxGeometry x="220" y="510" width="120" height="60" as="geometry"/>
                </mxCell>
                <mxCell id="15" style="edgeStyle=none;html=1;exitX=0.5;exitY=0;exitDx=0;exitDy=0;entryX=0.5;entryY=1;entryDx=0;entryDy=0;fontSize=12;dashed=1;" edge="1" parent="1" source="14" target="12">
                    <mxGeometry relative="1" as="geometry"/>
                </mxCell>
                <mxCell id="14" value="&lt;blockquote style=&quot;margin: 0px 0px 0px 40px ; border: none ; padding: 0px ; font-size: 12px&quot;&gt;&lt;/blockquote&gt;&lt;ul&gt;&lt;li style=&quot;font-size: 12px&quot;&gt;Positional&lt;/li&gt;&lt;ul style=&quot;font-size: 12px&quot;&gt;&lt;li style=&quot;font-size: 12px&quot;&gt;url&lt;/li&gt;&lt;/ul&gt;&lt;li style=&quot;font-size: 12px&quot;&gt;Optional Input Data&lt;/li&gt;&lt;ul style=&quot;font-size: 12px&quot;&gt;&lt;li style=&quot;font-size: 12px&quot;&gt;--data&lt;/li&gt;&lt;/ul&gt;&lt;li&gt;Optional Flags or Mode&lt;/li&gt;&lt;ul style=&quot;font-size: 12px&quot;&gt;&lt;li style=&quot;font-size: 12px&quot;&gt;--help&lt;/li&gt;&lt;li style=&quot;font-size: 12px&quot;&gt;... and so on&lt;/li&gt;&lt;/ul&gt;&lt;/ul&gt;" style="whiteSpace=wrap;html=1;fontSize=12;align=left;" vertex="1" parent="1">
                    <mxGeometry x="170" y="620" width="210" height="180" as="geometry"/>
                </mxCell>
                <mxCell id="20" value="GurlRequest" style="whiteSpace=wrap;html=1;fontSize=12;" vertex="1" parent="1">
                    <mxGeometry x="665" y="483.75" width="120" height="37.5" as="geometry"/>
                </mxCell>
                <mxCell id="22" style="edgeStyle=none;html=1;exitX=1;exitY=0.5;exitDx=0;exitDy=0;entryX=0;entryY=0.5;entryDx=0;entryDy=0;fontSize=12;" edge="1" parent="1" source="21" target="8">
                    <mxGeometry relative="1" as="geometry"/>
                </mxCell>
                <mxCell id="21" value="GurlResponse" style="whiteSpace=wrap;html=1;fontSize=12;" vertex="1" parent="1">
                    <mxGeometry x="665" y="540" width="120" height="37.5" as="geometry"/>
                </mxCell>
                <mxCell id="23" value="export( filepath )" style="shape=process;whiteSpace=wrap;html=1;backgroundOutline=1;fontSize=12;" vertex="1" parent="1">
                    <mxGeometry x="870" y="510" width="130" height="40" as="geometry"/>
                </mxCell>
                <mxCell id="24" value="**net/http wrapper" style="text;html=1;align=center;verticalAlign=middle;resizable=0;points=[];autosize=1;strokeColor=none;fillColor=none;fontSize=14;fontColor=#CC0000;" vertex="1" parent="1">
                    <mxGeometry x="695" y="600" width="130" height="20" as="geometry"/>
                </mxCell>
                <mxCell id="26" value="" style="ellipse;whiteSpace=wrap;html=1;aspect=fixed;fontSize=14;fontColor=#000000;fillColor=#999999;strokeColor=#999999;" vertex="1" parent="1">
                    <mxGeometry width="10" height="10" as="geometry"/>
                </mxCell>
                <mxCell id="27" value="" style="ellipse;whiteSpace=wrap;html=1;aspect=fixed;fontSize=14;fontColor=#000000;fillColor=#999999;strokeColor=#999999;" vertex="1" parent="1">
                    <mxGeometry x="1290" y="870" width="10" height="10" as="geometry"/>
                </mxCell>
            </root>
        </mxGraphModel>
    </diagram>
</mxfile>